<svg xmlns="http://www.w3.org/2000/svg" fill="none" viewBox="0 0 38 40" height="40" width="38">
<path fill="#FD8D6C" d="M17.2125 28.9798C17.3424 27.802 17.422 26.6179 17.6149 25.4506C17.8119 24.2309 18.2436 24.0653 19.3082 24.6123C19.6516 24.7749 19.954 25.0127 20.1931 25.308C20.4321 25.6033 20.6017 25.9485 20.6893 26.3182C21.2929 28.4915 21.3369 30.7193 21.4186 32.9366C21.4836 34.7306 22.1228 36.514 21.536 38.3248C21.4522 38.5846 21.4899 38.8843 21.3977 39.14C21.1755 39.7561 20.6537 39.9259 20.0585 39.9322C19.9351 39.9413 19.8112 39.9253 19.6942 39.8853C19.5772 39.8452 19.4695 39.7818 19.3777 39.6989C19.2858 39.6161 19.2117 39.5155 19.1598 39.4032C19.1079 39.291 19.0792 39.1693 19.0756 39.0457C18.6921 35.6527 17.1559 32.4671 17.2125 28.9798Z"></path>
<path fill="#FD8D6C" d="M20.595 8.04958C20.725 10.1244 20.6453 11.9099 19.7987 13.597C19.5765 14.0413 19.3795 14.473 18.9792 14.7706C18.1996 15.3512 17.5122 15.1038 17.2628 14.167C17.2149 13.9609 17.1902 13.75 17.1894 13.5383C17.0993 9.57526 16.7326 5.61221 17.0931 1.64497C17.1159 1.22896 17.1863 0.816951 17.3026 0.416892C17.3201 0.328921 17.3601 0.246976 17.4187 0.179125C17.4774 0.111274 17.5527 0.0598278 17.6372 0.0298236C17.7217 -0.000180635 17.8126 -0.00770597 17.9009 0.00797584C17.9892 0.0236576 18.0719 0.0619904 18.1409 0.119261C18.8178 0.588708 19.5493 1.00161 19.7421 1.9384C20.1675 4.04672 20.9827 6.09215 20.595 8.04958Z"></path>
<path fill="#FD8D6C" d="M30.2663 21.202C29.4448 21.3717 28.1455 20.8435 26.8482 20.0681C26.1482 19.649 25.7689 19.1544 25.8779 18.423C25.9889 17.6601 26.7162 17.526 27.3449 17.5092C29.843 17.4443 32.339 17.4275 34.8372 17.4023C35.2563 17.4023 35.6754 17.4485 36.0841 17.4464C36.8407 17.4464 37.6874 17.2598 37.7964 18.4062C37.8605 18.961 37.704 19.5187 37.3605 19.959C37.017 20.3994 36.5142 20.687 35.9605 20.7597C34.3006 20.9358 32.6387 21.0238 30.2663 21.202Z"></path>
<path fill="#FD8D6C" d="M6.07231 18.4961C7.18306 18.4626 8.43421 18.4501 9.65603 18.8043C10.5467 19.0641 11.1817 19.5839 11.0937 20.5709C11.0141 21.4679 10.3602 21.864 9.50514 21.9332C7.49532 22.0925 5.4855 22.2538 3.47358 22.3942C2.42571 22.4676 1.60417 21.9038 0.786826 21.3862C0.317379 21.0886 -0.133197 20.6757 0.0365586 20.0239C0.0989409 19.7498 0.238777 19.4994 0.439411 19.3025C0.640045 19.1056 0.893032 18.9705 1.16827 18.9132C2.77275 18.5288 4.42596 18.3882 6.07231 18.4961Z"></path>
<path fill="#FD8D6C" d="M14.9229 14.3462C14.9402 14.5619 14.9033 14.7785 14.8158 14.9765C14.7282 15.1744 14.5927 15.3473 14.4214 15.4796C14.2502 15.6119 14.0487 15.6995 13.8351 15.7343C13.6215 15.7691 13.4026 15.7501 13.1981 15.6791C10.1761 14.6584 7.48095 13.1642 6.08938 10.0436C5.91334 9.65382 5.74568 9.23045 6.02023 8.86579C6.33459 8.44664 6.78307 8.71071 7.1645 8.8155C7.68634 8.9601 8.33812 8.81549 8.6965 9.33104C9.81982 10.9762 11.5823 11.6636 13.2862 12.4328C14.1768 12.833 14.7511 13.4471 14.9229 14.3462Z"></path>
<path fill="#FD8D6C" d="M8.49944 32.0548C8.30179 32.0672 8.10436 32.0275 7.92685 31.9397C7.74933 31.8519 7.59797 31.719 7.48787 31.5544C7.37777 31.3898 7.31281 31.1992 7.29945 31.0016C7.28609 30.8041 7.32482 30.6064 7.41176 30.4285C7.6609 29.7762 8.00327 29.1634 8.42819 28.6093C9.8051 26.9516 11.1883 25.3044 12.4101 23.5272C12.7915 22.976 13.2212 22.5841 13.9589 23.108C14.5666 23.5397 14.6756 23.9589 14.4409 24.6924C13.5607 27.4546 11.5299 29.389 9.72125 31.4889C9.56519 31.6594 9.37684 31.7972 9.1671 31.8944C8.95736 31.9915 8.73042 32.046 8.49944 32.0548Z"></path>
<path fill="#FD8D6C" d="M25.048 23.4711C25.7648 23.4481 26.7246 23.928 27.5755 24.4896C28.988 25.3809 30.2477 26.494 31.3059 27.7862C32.1253 28.8152 32.0331 29.6724 31.0733 30.4625C30.3838 31.0305 29.7467 30.846 28.8078 29.7856C27.3407 28.1195 25.7794 26.5351 23.9415 25.265C23.5223 24.9779 23.0843 24.7348 23.3127 24.1271C23.5412 23.5193 24.0756 23.3789 25.048 23.4711Z"></path>
<path fill="#FD8D6C" d="M29.2694 10.2839C29.217 10.8623 28.7643 11.3066 28.3452 11.7656C26.897 13.3479 24.992 14.49 23.8435 16.3594C23.8007 16.4366 23.7422 16.504 23.6717 16.557C23.6012 16.6101 23.5204 16.6477 23.4344 16.6675C23.3484 16.6873 23.2592 16.6887 23.1727 16.6718C23.0861 16.6548 23.004 16.6198 22.9319 16.569C22.8228 16.5107 22.7268 16.4307 22.6499 16.334C22.5729 16.2372 22.5166 16.1257 22.4844 16.0063C22.4522 15.8869 22.4448 15.7622 22.4626 15.6398C22.4805 15.5174 22.5232 15.4 22.5881 15.2948C22.9932 14.5727 23.461 13.8875 23.986 13.2473C25.1345 11.8327 26.5931 10.7554 28.0832 9.73901C28.714 9.301 29.2903 9.56294 29.2694 10.2839Z"></path>
</svg>
